<svg width="350" height="450" xmlns="http://www.w3.org/2000/svg" fill="#a8a8a8"><path d="M125 20c-13.646 0-25 11.354-25 25s11.354 25 25 25 25-11.354 25-25-11.354-25-25-25zm100 0c-13.646 0-25 11.354-25 25s11.354 25 25 25 25-11.354 25-25-11.354-25-25-25z" style="font-variation-settings:normal;-inkscape-stroke:none"/><path d="M125 20c-13.646 0-25 11.354-25 25s11.354 25 25 25 25-11.354 25-25-11.354-25-25-25zm100 0c-13.646 0-25 11.354-25 25s11.354 25 25 25 25-11.354 25-25-11.354-25-25-25z" style="font-variation-settings:normal;-inkscape-stroke:none" transform="translate(0 90)"/><path d="M125 20c-13.646 0-25 11.354-25 25s11.354 25 25 25 25-11.354 25-25-11.354-25-25-25zm100 0c-13.646 0-25 11.354-25 25s11.354 25 25 25 25-11.354 25-25-11.354-25-25-25z" style="font-variation-settings:normal;-inkscape-stroke:none" transform="translate(0 180)"/><path d="M125 20c-13.646 0-25 11.354-25 25s11.354 25 25 25 25-11.354 25-25-11.354-25-25-25zm100 0c-13.646 0-25 11.354-25 25s11.354 25 25 25 25-11.354 25-25-11.354-25-25-25z" style="font-variation-settings:normal;-inkscape-stroke:none" transform="translate(0 270)"/><path d="M125 20c-13.646 0-25 11.354-25 25s11.354 25 25 25 25-11.354 25-25-11.354-25-25-25zm100 0c-13.646 0-25 11.354-25 25s11.354 25 25 25 25-11.354 25-25-11.354-25-25-25z" style="font-variation-settings:normal;-inkscape-stroke:none" transform="translate(0 360)"/></svg>