<svg width="350" height="450" xmlns="http://www.w3.org/2000/svg"><g style="font-variation-settings:normal;-inkscape-stroke:none" fill="#a0a0a0" stroke-width=".658"><path d="M125 20c-13.646 0-25 11.354-25 25s11.354 25 25 25 25-11.354 25-25-11.354-25-25-25zM225 20c-13.646 0-25 11.354-25 25s11.354 25 25 25 25-11.354 25-25-11.354-25-25-25z" style="font-variation-settings:normal;-inkscape-stroke:none"/></g><g style="font-variation-settings:normal;-inkscape-stroke:none" fill="#a0a0a0" stroke-width=".658"><path d="M125 20c-13.646 0-25 11.354-25 25s11.354 25 25 25 25-11.354 25-25-11.354-25-25-25zM225 20c-13.646 0-25 11.354-25 25s11.354 25 25 25 25-11.354 25-25-11.354-25-25-25z" style="font-variation-settings:normal;-inkscape-stroke:none" transform="translate(0 90)"/></g><g style="font-variation-settings:normal;-inkscape-stroke:none" fill="#a0a0a0" stroke-width=".658"><path d="M125 20c-13.646 0-25 11.354-25 25s11.354 25 25 25 25-11.354 25-25-11.354-25-25-25zM225 20c-13.646 0-25 11.354-25 25s11.354 25 25 25 25-11.354 25-25-11.354-25-25-25z" style="font-variation-settings:normal;-inkscape-stroke:none" transform="translate(0 180)"/></g><g style="font-variation-settings:normal;-inkscape-stroke:none" fill="#a0a0a0" stroke-width=".658"><path d="M125 20c-13.646 0-25 11.354-25 25s11.354 25 25 25 25-11.354 25-25-11.354-25-25-25zM225 20c-13.646 0-25 11.354-25 25s11.354 25 25 25 25-11.354 25-25-11.354-25-25-25z" style="font-variation-settings:normal;-inkscape-stroke:none" transform="translate(0 270)"/></g><g style="font-variation-settings:normal;-inkscape-stroke:none" fill="#a0a0a0" stroke-width=".658"><path d="M125 20c-13.646 0-25 11.354-25 25s11.354 25 25 25 25-11.354 25-25-11.354-25-25-25zM225 20c-13.646 0-25 11.354-25 25s11.354 25 25 25 25-11.354 25-25-11.354-25-25-25z" style="font-variation-settings:normal;-inkscape-stroke:none" transform="translate(0 360)"/></g></svg>