<?xml version="1.0" encoding="UTF-8" standalone="no"?>
<svg
   xmlns:dc="http://purl.org/dc/elements/1.1/"
   xmlns:cc="http://creativecommons.org/ns#"
   xmlns:rdf="http://www.w3.org/1999/02/22-rdf-syntax-ns#"
   xmlns:svg="http://www.w3.org/2000/svg"
   xmlns="http://www.w3.org/2000/svg"
   xmlns:xlink="http://www.w3.org/1999/xlink"
   xmlns:sodipodi="http://sodipodi.sourceforge.net/DTD/sodipodi-0.dtd"
   xmlns:inkscape="http://www.inkscape.org/namespaces/inkscape"
   id="Layer_1"
   version="1.1"
   viewBox="0 0 16 16"
   xml:space="preserve"
   inkscape:version="0.91 r13725"
   sodipodi:docname="icon-no.svg"
   width="16"
   height="16"><metadata
     id="metadata23"><rdf:RDF><cc:Work
         rdf:about=""><dc:format>image/svg+xml</dc:format><dc:type
           rdf:resource="http://purl.org/dc/dcmitype/StillImage" /><dc:title></dc:title></cc:Work></rdf:RDF></metadata><defs
     id="defs21" /><sodipodi:namedview
     pagecolor="#ffffff"
     bordercolor="#666666"
     borderopacity="1"
     objecttolerance="10"
     gridtolerance="10"
     guidetolerance="10"
     inkscape:pageopacity="0"
     inkscape:pageshadow="2"
     inkscape:window-width="1019"
     inkscape:window-height="735"
     id="namedview19"
     showgrid="false"
     fit-margin-top="0"
     fit-margin-left="0"
     fit-margin-right="0"
     fit-margin-bottom="0"
     inkscape:zoom="6.7425132"
     inkscape:cx="23.470806"
     inkscape:cy="-5.9841502"
     inkscape:window-x="59"
     inkscape:window-y="24"
     inkscape:window-maximized="0"
     inkscape:current-layer="Layer_1" /><style
     type="text/css"
     id="style3">
	.st0{clip-path:url(#SVGID_2_);fill:none;stroke:#E44061;stroke-width:45;}
	.st1{fill:#E44061;}
</style><g
     id="g5"
     transform="matrix(0.03125,0,0,0.03125,-1.5625,-4.375)"><g
       id="g7"><defs
         id="defs9"><rect
           height="512"
           id="SVGID_1_"
           width="512"
           x="50"
           y="140" /></defs><clipPath
         id="SVGID_2_"><use
           style="overflow:visible"
           xlink:href="#SVGID_1_"
           id="use13"
           x="0"
           y="0"
           width="100%"
           height="100%" /></clipPath><path
         class="st0"
         d="M 306,629.5 C 434.8,629.5 539.5,524.8 539.5,396 539.5,267.2 434.8,162.5 306,162.5 177.2,162.5 72.5,267.2 72.5,396 72.5,524.8 177.2,629.5 306,629.5 l 0,0 z"
         id="path15"
         clip-path="url(#SVGID_2_)"
         inkscape:connector-curvature="0"
         style="fill:none;stroke:#e44061;stroke-width:45" /></g><polygon
       class="st1"
       points="306,353.3 206.7,254 164,296.7 263.3,396 164,495.3 206.7,538 306,438.7 405.3,538 448,495.3 348.7,396 348.7,396 448,296.7 405.3,254 "
       id="polygon17"
       style="fill:#e44061" /></g></svg>